<!DOCTYPE svg PUBLIC "-//W3C//DTD SVG 20010904//EN" "http://www.w3.org/TR/2001/REC-SVG-20010904/DTD/svg10.dtd">
<svg version="1.0" xmlns="http://www.w3.org/2000/svg" width="144px" height="144px" viewBox="0 0 2000 2000" preserveAspectRatio="xMidYMid meet">
<g id="layer1" fill="#000000" stroke="none">
 <path d="M775 1744 c-11 -2 -45 -9 -75 -15 -199 -40 -400 -200 -495 -393 -63 -127 -79 -197 -79 -336 0 -136 17 -210 74 -325 228 -462 831 -563 1195 -200 34 33 81 91 105 128 l44 67 163 0 c89 0 164 4 167 9 3 4 -16 23 -41 41 l-46 34 46 42 c25 23 43 44 40 48 -4 3 -64 6 -134 6 l-128 0 6 108 c10 186 -41 354 -151 499 -92 122 -254 230 -401 269 -59 15 -250 28 -290 18z m704 -529 c25 -67 43 -177 39 -237 l-3 -43 -644 -3 -644 -2 6 107 c3 74 12 127 27 171 l22 62 588 0 589 0 20 -55z"/>
 <path d="M561 1205 c-69 -59 -61 -155 16 -206 64 -42 156 -8 182 67 18 52 9 88 -34 131 -29 29 -40 33 -83 33 -39 0 -57 -6 -81 -25z"/>
 <path d="M1015 1195 c-31 -32 -35 -42 -35 -87 0 -45 4 -54 39 -89 32 -32 46 -39 77 -39 120 0 177 138 90 217 -30 28 -43 33 -86 33 -43 0 -54 -4 -85 -35z"/>
 </g>

</svg>